<svg width="400" height="400" viewBox="0 0 400 400" fill="none" xmlns="http://www.w3.org/2000/svg">
<g clip-path="url(#clip0_480_34602)">
<path d="M85.9 398.9C43.8 394.4 9.8 362.5 1.8 320.1C0.8 315.1 0.5 286.6 0.5 199.5C0.5 93.1 0.6 84.9 2.3 77.1C10.6 38.6 40.9 9.2 79.9 1.8C84.9 0.8 113.4 0.5 200.5 0.5C306.9 0.5 315.1 0.6 322.9 2.3C361.4 10.6 390.8 40.9 398.2 79.9C399.2 84.9 399.5 113.4 399.5 200.5C399.5 306.9 399.4 315.1 397.7 322.9C390.6 356 366 383.8 334.5 394.5C319.5 399.6 324.4 399.4 205 399.6C143.7 399.7 90.1 399.4 85.9 398.9ZM165.8 353.7C167 352.4 169.9 346 172.2 339.4C176.6 326.6 179.5 321.8 183.8 320.1C185.3 319.5 191.8 318.3 198.4 317.5C229 313.3 242.3 306.6 282 275C302.7 258.5 307 254.3 307 250.3C307 246.8 302.6 240.5 298.4 237.9C295.7 236.3 295 235.2 295 232.6C295 230 295.6 229.1 298.5 227.6C300.5 226.5 304.1 223.5 306.6 220.8C316.6 210.1 319.2 197 313.5 185.4C309.9 178 301 169 294.8 166.4C290.6 164.8 290 164.1 290 161.6C290 159.9 291.2 157.5 293 155.4C300.3 147 297.5 141.3 279.8 128.7C268.7 120.8 253.6 114.9 238.3 112.5C234.3 111.9 234 111.6 234 108.7C234 106.2 235.3 104.3 240.4 99C251.9 87.4 257.3 75.5 255 66.9C252.8 58.8 244 52.4 238.8 55.1C237.5 55.8 231.4 60.5 225.2 65.7C215.8 73.5 213.3 75 210.4 75C207.3 75 207 74.7 207 72.3C207.1 70.7 207.5 67.5 208 65C210.4 52.9 200.4 38.4 191.1 40.5C187.1 41.4 183.9 45.1 177.2 57C171.6 66.9 171 67.5 167.8 67.8C164.7 68.1 164.3 67.8 162.6 64C160.6 59.3 155.4 55 151.8 55C147.7 55 144.2 59.8 140.9 70.1C136.4 84 130.2 103.2 120.5 133.5C115.7 148.4 110.8 163.7 109.5 167.5C108.2 171.4 105.1 186.9 102.5 202C93.6 254.9 91.1 266.5 80.3 302.7C75.4 319.3 75.3 321.8 79.7 324.7C82.6 326.7 159.6 355.9 162.1 355.9C162.9 356 164.6 355 165.8 353.7Z" fill="url(#paint0_linear_480_34602)"/>
<path d="M216.5 251.2C205 247.2 196.8 240.2 191.8 229.8C187.8 221.6 186.7 214.7 187.2 201.2C187.6 189.7 187.8 188.9 191.5 181.3C196.1 171.9 204.9 162.7 213 158.8C225.3 152.9 242.7 152.5 258 157.6C266.2 160.4 266.5 160.6 266.8 163.9C267.1 166.5 266.6 167.6 264.8 168.8C254.2 176.2 247.6 187.1 247.6 197.3C247.7 209.4 255.3 221.7 266.7 228.2C271.5 230.9 272 231.5 272 234.6C272 236.5 271.6 238 271.2 238C270.7 238 266.1 240.5 261 243.7C255.9 246.8 249 250.1 245.7 251.2C237.9 253.6 223.4 253.6 216.5 251.2Z" fill="url(#paint1_linear_480_34602)"/>
<path d="M119.9 338.7C99.1998 330.9 81.4998 323.8 80.4998 323C77.8998 320.8 78.7998 315.5 86.8998 287.9C94.7998 260.6 97.8998 246.7 104.5 207.2C106.9 192.4 109.9 177.4 111 173.9C114.1 163.7 118.9 157.9 136 143.7C144.5 136.6 161.4 122.1 173.4 111.6C185.5 101.1 204.6 84.7 215.9 75.3L236.5 58H241.8C246.2 58 247.5 58.5 249.7 60.6C252.1 63 252.2 63.5 251.8 72.3C251.3 84.5 248.9 88.9 235.5 101.9L225.4 111.8L217.9 113C208.5 114.6 195.5 119 188.2 123.1C181 127.1 170.4 134.9 166.5 139C164.9 140.8 167.8 139 173 135C199.3 115.3 227.8 110.2 258 119.9C268.6 123.3 282.3 131 289.4 137.5C293.6 141.3 294 142.1 294 146.4C294 156.1 289.2 160 277.1 160C271.3 160 268.2 159.3 259.8 156.1C247 151.3 238.1 149.8 229.9 151.1C206.8 154.8 189.1 172.7 184.3 196.9C182.7 204.8 182.7 205.9 184.3 213.4C186.7 225 192 235.2 199.4 242.5C206.8 249.7 213.4 253.4 222.5 255.5C233.9 258.2 244.5 255.6 259.4 246.5C270.5 239.8 275.2 238 282.8 237.3C291.1 236.6 297.4 238.2 301.2 242C303.6 244.4 304 245.7 304 250.1C304 256.4 304.3 256 279.5 275.4C242.4 304.3 233.5 308.8 204.2 313.6C195.7 314.9 187.4 316.6 185.7 317.4C183.9 318.1 180.7 320.7 178.4 323.2C174.3 327.6 173.4 329.5 168.3 344.5L165.5 352.5L161.5 352.7C158.5 352.9 148.4 349.5 119.9 338.7Z" fill="#FAFFF5"/>
<path d="M122 138.3C122 136.7 126.5 121.6 132.1 104.5C137.6 87.4998 143.1 70.3998 144.4 66.4998C146.6 59.5998 146.7 59.4998 150.5 59.1998C159.5 58.3998 161.5 61.4998 161.5 75.5998L161.4 84.6998L156.1 94.0998C153.2 99.2998 145.8 111.9 139.7 122.3C128.8 140.5 128.5 141 125.3 141C122.4 141 122 140.7 122 138.3Z" fill="#FAFFF5"/>
<path d="M138 132C138 129.3 146.1 114.7 180.3 55.5C186.3 45.1 187.5 44 193 44C201.4 44 205 49.1 205 61C205 68.5 202.7 77 198.4 84.9C194.7 91.8 192.5 93.9 157.7 123.8C146.7 133.1 144 135 141.3 135C138.3 135 138 134.7 138 132Z" fill="#FAFFF5"/>
<path d="M120 344.9C97.6999 336.5 78.2999 328.9 76.7999 327.8C71.5999 324.2 71.3999 320.1 75.4999 306C88.1999 263 90.2999 253.6 99.0999 201.6C101.9 185.1 105.2 168.4 106.5 164.6C107.8 160.7 112.7 145.4 117.5 130.5C122.3 115.7 128.1 97.4 130.5 90C132.9 82.6 136.3 72.2 138 66.9C141.9 54.7 144.8 51.5 152 51.6C158 51.7 162.8 55 165.7 61.1L167.7 65.4L170.2 60.9C183.1 38.4 183.6 37.9 191.4 37.2C195.2 36.9 197.8 37.3 200.4 38.5C208.4 42.3 213.3 54.7 211.3 66.2C210.6 70.3 210.6 71.7 211.4 71.3C212 70.9 217.2 66.7 223 62C235.3 51.8 236.7 51 241.5 51C257 51 263.7 69 254.9 86.9C252.9 90.9 248.9 96.3 244.3 101.1L236.9 108.8L241.2 109.5C262.1 112.8 284.3 123.8 295.5 136.2C301.8 143.1 302 151.6 296.1 158.2L293.3 161.3L299.1 164.2C306 167.7 312.8 174.8 316.7 182.8C319.2 187.8 319.5 189.6 319.5 198C319.5 206.1 319.1 208.3 316.9 213.1C313.7 219.8 308.1 226.3 302.2 230.1L297.9 232.8L301.3 234.9C305.2 237.3 309.4 243.1 310.4 247.3C311.5 251.9 309.4 257.2 304.8 261.6C302.4 263.9 292.8 271.9 283.4 279.3C245.4 309.5 231.6 316.4 201.4 320.5C194.8 321.3 188.3 322.5 186.8 323.1C182.5 324.8 179.6 329.6 175.1 342.5C172.8 349.1 170 355.5 168.7 356.7C164.2 361.2 163.1 361 120 344.9ZM165.3 341.4C170.5 326.3 171.3 324.6 175.4 320.2C177.7 317.7 180.9 315.1 182.7 314.4C184.4 313.6 192.7 311.9 201.2 310.6C230.5 305.8 239.4 301.3 276.5 272.4C298 255.6 301 252.9 301 250.1C301 246.9 296 242.4 291 241C283.5 239 276.3 241.1 262.4 249.5C246.9 259 233.9 261.7 219.9 258.6C192.4 252.5 175.2 222.8 181.5 192.5C185.6 173 200.8 155.5 218.4 150.1C232.8 145.7 245.5 146.5 262.8 153.1C274 157.4 279.3 157.9 284.6 155.4C288.6 153.5 291.4 148.8 290.6 145.5C289.3 140.2 269.4 127.5 255.2 123C226.4 113.7 201.9 118.5 175.5 138.4C165.4 146.1 163.4 147 161.2 144.8C158.8 142.4 160 139.3 164.8 134.9C179 121.7 196.2 113.1 214.9 110L222.4 108.8L232.5 98.9C244.5 87.2 248 81.5 248.8 72.5C249.2 66.7 249 66 246.7 63.6C245.3 62.2 243.1 61 241.8 61C239.3 61 215.5 80.5 176.4 114.6C164.4 125.1 147.5 139.6 139 146.7C121.9 160.9 117.1 166.7 114 176.9C112.9 180.4 109.9 195.4 107.5 210.2C100.9 249.4 97.7999 263.5 89.8999 290.9C85.9999 304.5 82.6999 316.2 82.3999 317.1C82.1999 318 82.6999 319.3 83.5999 320.1C85.5999 321.8 160.1 350 161.5 349.6C162.1 349.5 163.7 345.8 165.3 341.4ZM242.9 248.1C246.3 247.1 252.3 244.2 256.2 241.7C260.2 239.3 264.8 236.6 266.4 235.8L269.2 234.3L263.8 231.2C256.7 227.3 249.7 219.4 246.8 212.2C243.6 204.1 243.6 190.6 246.8 183.6C249.8 176.9 253.2 172.7 259.2 167.9L264.2 164L260.4 162.4C254.2 159.8 242 157 236.9 157C218.9 157 202.9 167.3 194.5 184.2C191.2 191.1 190.7 193 190.2 201.3C189.7 212 190.9 218.7 194.8 226.8C203.6 245 223.9 254 242.9 248.1ZM286 224C287.8 223.4 286.7 223.2 282 223.2C277.3 223.2 276.2 223.4 278 224C279.4 224.4 281.2 224.8 282 224.8C282.8 224.8 284.6 224.4 286 224ZM286 206.7C287.9 205.5 290.2 203 291.3 201.2C293.1 198.1 293.1 197.9 291.3 194.8C289.6 191.8 283.8 187 282 187C280.2 187 274.4 191.8 272.7 194.8C270.9 197.9 270.9 198.1 272.7 201.2C274.4 204.2 280.2 209 282 209C282.4 209 284.2 208 286 206.7ZM256.9 197.8C256.9 192.6 256.7 191.9 255.9 194C255 196.2 255.6 204 256.6 204C256.8 204 257 201.2 256.9 197.8ZM308.1 194.3C307.3 190.9 307.2 191.2 307.2 197.5C307.2 203.4 307.3 204 308.1 201.3C308.6 199.5 308.6 196.6 308.1 194.3ZM285.7 171.8C283.9 171.2 281.7 171.1 279.2 171.8C275.7 172.7 275.9 172.8 282 172.8C287.5 172.8 288.1 172.7 285.7 171.8ZM137.2 118.5C157.3 84.6 158.2 82.6 158.4 75.7C158.5 68.1 156.6 63.2 153.3 62.4C150.2 61.6 149.7 62.2 147.2 70C146 73.6 141.1 88.9 136.2 104C125.1 138.2 125.6 136.7 126.8 135.5C127.3 135 132 127.3 137.2 118.5ZM169.2 108.2C191.2 89.2 192.1 88.2 195.9 80.8C202.9 67.1 203.7 55.5 198 49.8C194.6 46.4 192 46.2 189.3 49.3C188.2 50.5 179.3 65.4 169.5 82.5C152.7 111.7 147.5 120.7 142.6 129L140.5 132.5L143.5 130.2C145.2 128.9 156.7 119 169.2 108.2Z" fill="#005532"/>
<path d="M272.5 226.3C262.8 222.8 256.3 216.1 253.5 206.7C247.9 187.9 260.6 169.8 280.2 168.3C291.8 167.4 302.7 173.5 308.5 184.1C311.1 188.8 311.4 190.6 311.5 197.5C311.5 206.6 309.5 212 304.1 218.3C297 226.4 282.8 230 272.5 226.3ZM292.1 217.2C298.3 214 302.8 207.7 303.7 201.2C306 184.4 288.6 171 273.5 177.9C268.5 180.1 262.6 186.5 261 191.5C257.8 201.1 262.6 212.4 271.9 217.2C279 220.9 285 220.9 292.1 217.2Z" fill="#FFCD35"/>
<path d="M275.2 210C265.8 204.3 265.8 191.7 275.2 186C281.6 182.1 289.8 184.4 294 191.2C301.1 202.9 286.9 217.1 275.2 210Z" fill="#FFCD35"/>
</g>
<defs>
<linearGradient id="paint0_linear_480_34602" x1="15" y1="6" x2="394" y2="397" gradientUnits="userSpaceOnUse">
<stop stop-color="#5CF674"/>
<stop offset="1" stop-color="#30BE2E"/>
</linearGradient>
<linearGradient id="paint1_linear_480_34602" x1="190.173" y1="155.417" x2="283.488" y2="238.057" gradientUnits="userSpaceOnUse">
<stop stop-color="#5CF674"/>
<stop offset="1" stop-color="#30BE2E"/>
</linearGradient>
<clipPath id="clip0_480_34602">
<rect width="400" height="400" fill="white"/>
</clipPath>
</defs>
</svg>
